<svg id="ae929014-788c-45bd-95b0-b44a46852c11" data-name="Capa 1" xmlns="http://www.w3.org/2000/svg" viewBox="0 0 501 501"><path d="M490,256a243.94,243.94,0,0,1-43,138.69c-1.17,1.7-2.36,1.38-3.58,3.05-1.44,2-2.91,5.95-4.4,7.89a246.5,246.5,0,0,1-66.51,59.62c-3.24,2-6.53,1.88-9.86,3.71s-6.72,5.58-10.15,7.25A243,243,0,0,1,289,497.06c-3.15.57-6.33-.92-9.52-.47-3.47.49-7,2.91-10.48,3.25Q257.15,501,245,501c-2.79,0-5.56-.05-8.33-.14-3.43-.11-6.85-2.3-10.25-2.55s-6.52,1.44-9.75,1.07a244.08,244.08,0,0,1-40.49-8.18c-3.4-1-6.77-4.06-10.1-5.19s-6.64-.34-9.9-1.61a244.43,244.43,0,0,1-53-28.59c-.45-.32-57.68-57.55-58-58a245.14,245.14,0,0,1-8-271.6c2-3.19,10.36-15.3,12.53-18.17A247,247,0,0,1,81.33,73.69c3.15-2.84,16.35-13.52,19.79-16a245.2,245.2,0,0,1,35.74-21.58c4.49-2.21,21.32-9.3,25.2-10.7A244.74,244.74,0,0,1,245,11c135.31,0,245,109.69,245,245Z" transform="translate(0 0)" style="fill:#012d4e"/><path d="M176.18,35.36v90.47a10,10,0,1,1-20,0V45.36h-9.34a10,10,0,0,1-10-9.26,241.65,241.65,0,0,1,25.31-10.74h4a10,10,0,0,1,10,10ZM437,295.36H417.66a10,10,0,1,0,0,20H427v80.47a10,10,0,0,0,10,10,10.4,10.4,0,0,0,2-.2q4.13-5.36,8-10.94V305.36a10,10,0,0,0-10-10Zm-174.49,0H243.17a10,10,0,1,0,0,20h9.34v80.47a10,10,0,0,0,20,0V305.36A10,10,0,0,0,262.51,295.36ZM166.18,161.84H146.84a10,10,0,0,0,0,20h9.34v80.48a10,10,0,0,0,20,0V171.84A10,10,0,0,0,166.18,161.84ZM74.83,295.36H55.49a10,10,0,0,0,0,20h9.34v80.47a10,10,0,0,0,20,0V305.36A10,10,0,0,0,74.83,295.36Zm91.35,132.32H146.84a10,10,0,1,0,0,20h9.34V484.4q9.8,3.81,20,6.8V437.68A10,10,0,0,0,166.18,427.68ZM344.67,181.84v80.48a10,10,0,0,0,20,0V171.84a10,10,0,0,0-10-10H335.33a10,10,0,0,0,0,20Zm17.84,245.84H343.17a10,10,0,0,0,0,20h9.34v28.53q10.28-5,20-11V437.68A10,10,0,0,0,362.51,427.68ZM437,161.84H417.66a10,10,0,0,0,0,20H427v80.48a10,10,0,0,0,20,0V171.84A10,10,0,0,0,437,161.84Z" transform="translate(0 0)" style="fill:#008a80"/><path d="M65.16,160A36.2,36.2,0,0,0,29,196.16V238a36.17,36.17,0,1,0,72.33,0V196.16A36.21,36.21,0,0,0,65.16,160Zm16.17,78A16.17,16.17,0,0,1,49,238V196.16a16.17,16.17,0,0,1,32.33,0Zm75.18,53.66a36.22,36.22,0,0,0-36.17,36.17v41.84a36.17,36.17,0,0,0,72.33,0V327.83A36.21,36.21,0,0,0,156.51,291.66Zm16.16,78a16.17,16.17,0,0,1-32.33,0V327.83a16.17,16.17,0,1,1,32.33,0Zm-71.55-312a35.07,35.07,0,0,1,.21,3.85v41.84a36.16,36.16,0,0,1-64.17,22.86Q43,116.85,49.7,108.05a16.16,16.16,0,0,0,31.63-4.69V73.69A247.67,247.67,0,0,1,101.12,57.67Zm287.67-.06a244.58,244.58,0,0,0-51.62-28.68,36.21,36.21,0,0,0-20.5,32.59v41.84a36.17,36.17,0,0,0,72.33,0V61.52A36.17,36.17,0,0,0,388.79,57.61ZM369,103.36a16.17,16.17,0,0,1-32.33,0V61.52a16.17,16.17,0,0,1,32.33,0Zm-16.16,188.3a36.22,36.22,0,0,0-36.17,36.17v41.84a36.17,36.17,0,0,0,72.33,0V327.83A36.21,36.21,0,0,0,352.84,291.66Zm16.16,78a16.17,16.17,0,0,1-32.33,0V327.83a16.17,16.17,0,1,1,32.33,0ZM252.84,160a36.21,36.21,0,0,0-36.17,36.16V238A36.17,36.17,0,1,0,289,238V196.16A36.2,36.2,0,0,0,252.84,160ZM269,238a16.17,16.17,0,1,1-32.33,0V196.16a16.17,16.17,0,0,1,32.33,0ZM252.84,25.36a36.21,36.21,0,0,0-36.17,36.16v41.84a36.17,36.17,0,1,0,72.33,0V61.52A36.2,36.2,0,0,0,252.84,25.36Zm16.16,78a16.17,16.17,0,1,1-32.33,0V61.52a16.17,16.17,0,0,1,32.33,0ZM289,462v35.07q-9.87,1.79-20,2.78V462a16.17,16.17,0,1,0-32.33,0v38.86q-10.09-.33-20-1.48V462A36.17,36.17,0,1,1,289,462Z" transform="translate(0 0)" style="fill:#30e87a"/><path d="M449.6,299.6a175.56,175.56,0,0,1-224.76,19.7l-93.09,93.08L88.62,369.25l93.08-93.09A175.52,175.52,0,1,1,449.6,299.6Z" transform="translate(0 0)" style="fill:#98e5fb"/><path d="M118.85,399.48a18.25,18.25,0,0,1,0-25.81l80.26-80.26a18.25,18.25,0,0,1,25.8,25.81l-80.25,80.26a18.26,18.26,0,0,1-25.81,0Z" transform="translate(0 0)" style="fill:#c7eefd"/><path d="M185.14,352.63a15,15,0,0,1,0,21.21l-82,82a246.27,246.27,0,0,1-58-58l82-82a15,15,0,0,1,21.21,0Z" transform="translate(0 0)" style="fill:#0266eb"/><path d="M113.39,424.39l-19.1-19.1a15,15,0,0,1,0-21.21L148.37,330a10,10,0,0,1,14.14,0l22.63,22.63a15,15,0,0,1,0,21.21L134.6,424.38a15,15,0,0,1-21.22,0Z" transform="translate(0 0)" style="fill:#0494fb"/><path d="M422.73,272.73a137.5,137.5,0,1,1,0-194.46A137.52,137.52,0,0,1,422.73,272.73Z" transform="translate(0 0)" style="fill:#012d4e"/><path d="M325.39,38a36,36,0,0,0-8.72,23.52v41.84a36.17,36.17,0,0,0,72.33,0V61.52A36,36,0,0,0,388,53,137.45,137.45,0,0,0,325.39,38ZM369,103.36a16.17,16.17,0,1,1-32.33,0V61.52a16.17,16.17,0,0,1,32.33,0ZM284.58,44.2A36,36,0,0,1,289,61.52v41.84a36.17,36.17,0,0,1-72.33,0V91.43a140.22,140.22,0,0,1,11.6-13.16q4.08-4.08,8.4-7.74v32.83a16.17,16.17,0,1,0,32.33,0V61.52a16.06,16.06,0,0,0-3.36-9.85,138.44,138.44,0,0,1,18.94-7.47Zm68.26,247.46a36,36,0,0,1,25.69,10.74,137.81,137.81,0,0,1-58.62,10.49A36.2,36.2,0,0,1,352.84,291.66ZM272,302.2a135.28,135.28,0,0,1-13.95-6.84h4.46A10,10,0,0,1,272,302.2Zm72.67-39.88V181.84h-9.34a10,10,0,0,1,0-20h19.34a10,10,0,0,1,10,10v90.48a10,10,0,0,1-20,0ZM447,171.84V240a137.28,137.28,0,0,1-18.85,27,10,10,0,0,1-1.15-4.67V181.84h-9.34a10,10,0,0,1,0-20H437a10,10,0,0,1,10,10ZM252.84,160a36.21,36.21,0,0,0-36.17,36.16V238A36.17,36.17,0,1,0,289,238V196.16A36.2,36.2,0,0,0,252.84,160ZM269,238a16.17,16.17,0,0,1-32.33,0V196.16a16.17,16.17,0,0,1,32.33,0Z" transform="translate(0 0)" style="fill:#30e87a"/><path d="M436.3,94A137.53,137.53,0,0,0,244,286.3a140.26,140.26,0,0,1-15.77-13.57,137.5,137.5,0,1,1,208-178.68Z" transform="translate(0 0)" style="fill:#012d4e"/><path d="M389,61.52V71.63a137.85,137.85,0,0,0-20-3.56V61.52a16.17,16.17,0,0,0-32.33,0v7a139.1,139.1,0,0,0-20,4.18V61.52A36,36,0,0,1,325.39,38,137.45,137.45,0,0,1,388,53a36.06,36.06,0,0,1,1,8.55ZM219,183.31a36.06,36.06,0,0,0-2.36,12.85V238a36.19,36.19,0,0,0,16,30A137.8,137.8,0,0,1,219,183.31Zm17.64-79.95V70.53c-2.88,2.44-5.68,5-8.4,7.74a140.22,140.22,0,0,0-11.6,13.16v11.93a36.19,36.19,0,0,0,19.45,32.06,136.06,136.06,0,0,1,11.56-16.74,16.2,16.2,0,0,1-11-15.32Zm29-51.69A16.06,16.06,0,0,1,269,61.52v35.9A135.79,135.79,0,0,1,289,84.1V61.52a36,36,0,0,0-4.42-17.32,138.44,138.44,0,0,0-18.94,7.47Z" transform="translate(0 0)" style="fill:#30e87a"/><circle cx="325.56" cy="175.44" r="137.44" style="fill:#012d4e;opacity:0.5"/><path d="M383.16,212.29a14.76,14.76,0,0,1-20.87,20.87L325.5,196.38l-36.79,36.78a14.76,14.76,0,0,1-20.87-20.87l36.78-36.79-36.78-36.79a14.76,14.76,0,0,1,20.87-20.87l36.79,36.78,36.79-36.78a14.76,14.76,0,0,1,20.87,20.87L346.38,175.5Z" transform="translate(0 0)" style="fill:#fff5f5"/><path d="M225.5,185.5h-20a10,10,0,0,1,0-20h20a10,10,0,0,1,0,20Zm0-59.14a10,10,0,0,0-14.14,14.14l14.14,14.14a10,10,0,0,0,14.14-14.14Zm0,70L211.36,210.5a10,10,0,0,0,14.14,14.14l14.14-14.14a10,10,0,0,0-14.14-14.14Zm220-30.86h-20a10,10,0,0,0,0,20h20a10,10,0,0,0,0-20Zm-20,30.86a10,10,0,0,0-14.14,14.14l14.14,14.14a10,10,0,0,0,14.14-14.14Zm-14.14-41.72a10,10,0,0,0,14.14,0l14.14-14.14a10,10,0,0,0-14.14-14.14L411.36,140.5A10,10,0,0,0,411.36,154.64Z" transform="translate(0 0)" style="fill:#fff5f5"/></svg>