<svg id="ea8ddbe5-adbc-4ddd-842e-7cfdcd44b5aa" data-name="Capa 1" xmlns="http://www.w3.org/2000/svg" viewBox="0 0 490 501"><path d="M495.5,256c0,116.76-81.67,214.44-191,239,0,0-4.48-10.45-10-10.45s-10,14.08-10,14.08A246,246,0,0,1,252.17,501c-11,.08-4.47-16.41-10-16.41s-10,15.74-10,15.74a244.15,244.15,0,0,1-40.49-6.43c-3.62-.89-5.88-5.71-9.43-6.77-3.11-.91-7.52,2-10.57.92C75,455.23,5.5,363.73,5.5,256c0-135.31,109.69-245,245-245a244.07,244.07,0,0,1,102,22.18c10.17,4.66,19,11.11,28.38,17.07,7.91,5,16.47,9.4,23.74,15.29A244.52,244.52,0,0,1,495.5,256Z" transform="translate(-5.5)" style="fill:#012d4e"/><path d="M191.68,176v90.48a10,10,0,0,1-20,0V186h-9.34a10,10,0,0,1,0-20h19.34A10,10,0,0,1,191.68,176ZM278,299.52H258.67a10,10,0,0,0,0,20H268V400a10,10,0,0,0,20,0V309.52A10,10,0,0,0,278,299.52Zm-187.68,0H71a10,10,0,1,0,0,20h9.34V400a10,10,0,0,0,20,0V309.52A10,10,0,0,0,90.33,299.52Zm91.35,132.33H162.34a10,10,0,0,0,0,20h9.34V488q9.81,3.34,20,5.85v-52A10,10,0,0,0,181.68,431.85ZM452.5,166H433.16a10,10,0,0,0,0,20h9.34v80.48a10,10,0,0,0,20,0V176A10,10,0,0,0,452.5,166Zm-82.33,0H350.83a10,10,0,1,0,0,20h9.34v80.48a10,10,0,0,0,20,0V176A10,10,0,0,0,370.17,166Z" transform="translate(-5.5)" style="fill:#0ab59e"/><path d="M268.34,278.33a36.21,36.21,0,0,1-36.17-36.16V200.33a36.17,36.17,0,0,1,72.33,0v41.84A36.2,36.2,0,0,1,268.34,278.33Zm0-94.16a16.18,16.18,0,0,0-16.17,16.16v41.84a16.17,16.17,0,0,0,32.33,0V200.33A16.18,16.18,0,0,0,268.34,184.17ZM80.66,278.33A36.2,36.2,0,0,1,44.5,242.17V200.33a36.17,36.17,0,0,1,72.33,0v41.84A36.21,36.21,0,0,1,80.66,278.33Zm0-94.16A16.18,16.18,0,0,0,64.5,200.33v41.84a16.17,16.17,0,0,0,32.33,0V200.33A16.18,16.18,0,0,0,80.66,184.17ZM268.34,430a36.21,36.21,0,0,0-36.17,36.16v34.16q9.08.68,18.33.68h1.67V466.16a16.17,16.17,0,0,1,32.33,0v32.5q10.14-1.41,20-3.63V466.16A36.2,36.2,0,0,0,268.34,430ZM172,410a36.21,36.21,0,0,1-36.17-36.16V332a36.17,36.17,0,1,1,72.33,0v41.84A36.2,36.2,0,0,1,172,410Zm0-94.17A16.18,16.18,0,0,0,155.84,332v41.84a16.17,16.17,0,0,0,32.33,0V332A16.18,16.18,0,0,0,172,315.83Zm96.33-172.14a36.21,36.21,0,0,1-36.17-36.16V65.69a36.17,36.17,0,1,1,72.33,0v41.84A36.2,36.2,0,0,1,268.34,143.69Zm0-94.17a16.19,16.19,0,0,0-16.17,16.17v41.84a16.17,16.17,0,0,0,32.33,0V65.69A16.19,16.19,0,0,0,268.34,49.52Zm63.83,16.17v41.84a36.17,36.17,0,0,0,72.33,0V65.44a244.85,244.85,0,0,0-52-32.26A36.21,36.21,0,0,0,332.17,65.69Zm52.33,0v41.84a16.17,16.17,0,0,1-32.33,0V65.69a16.17,16.17,0,1,1,32.33,0Z" transform="translate(-5.5)" style="fill:#30e87a"/><path d="M192,120a20,20,0,1,1-20-20A20,20,0,0,1,192,120ZM172,80a15,15,0,1,0-15-15A15,15,0,0,0,172,80Zm0-50a15,15,0,1,0-15-15A15,15,0,0,0,172,30ZM368.34,340a20,20,0,1,1,20-20A20,20,0,0,1,368.34,340Zm-15,35a15,15,0,1,0,15-15A15,15,0,0,0,353.34,375Zm0,50a15,15,0,1,0,15-15A15,15,0,0,0,353.34,425Z" transform="translate(-5.5)" style="fill:#006e66"/><path d="M192,120a20,20,0,0,1-1.4,7.36,20,20,0,0,1-26-26A19.79,19.79,0,0,1,172,100,20,20,0,0,1,192,120ZM172,50a15.1,15.1,0,0,0-3.38.38,15.61,15.61,0,0,0-.38,3.37,15,15,0,0,0,18.37,14.62A15,15,0,0,0,172,50Zm11.24-31.25a14.94,14.94,0,0,0,3.37-.38A15,15,0,0,0,172,0a15.1,15.1,0,0,0-3.38.38,15,15,0,0,0,14.62,18.37ZM388.34,320a20,20,0,0,0-1.4-7.36,20,20,0,0,0-26,26,19.79,19.79,0,0,0,7.36,1.4A20,20,0,0,0,388.34,320Zm-5,55a15.54,15.54,0,0,0-.38-3.37,15,15,0,0,0-18.38,14.62,15.61,15.61,0,0,0,.38,3.37A15,15,0,0,0,383.34,375Zm-18.76,61.25a15.54,15.54,0,0,0,.38,3.37A15,15,0,0,0,383.34,425a14.94,14.94,0,0,0-.38-3.37,15,15,0,0,0-18.38,14.62Z" transform="translate(-5.5)" style="fill:#06995f"/></svg>