<?xml version="1.0"?>
<svg xmlns="http://www.w3.org/2000/svg" xmlns:xlink="http://www.w3.org/1999/xlink"  version="1.1"  x="0" y="0" viewBox="0 0 501 501" style="enable-background:new 0 0 512 512" xml:space="preserve" class=""><g><path xmlns="http://www.w3.org/2000/svg" d="m11 250.763c-.14-133.238 107.182-242.777 240.398-245.221 58.59-1.075 112.594 18.422 155.271 51.75 5.883 4.594 7.344 12.951 3.209 19.166-25.828 38.818-40.878 85.422-40.878 135.542 0 68.583 28.181 130.585 73.594 175.057 5.775 5.655 6.217 14.834 1.016 21.02-35.174 41.834-84.083 71.735-139.781 82.757-16.916-3.348-34.458-4.955-52.431-4.625-14.746.271-29.174 1.854-43.174 4.635-112.356-22.209-197.099-121.237-197.224-240.081z" fill="#012d4e" data-original="#fd3980" style="" class=""/><path xmlns="http://www.w3.org/2000/svg" d="m90 367.5h-70c-11.046 0-20-8.954-20-20v-271c0-11.046 8.954-20 20-20h70c11.046 0 20 8.954 20 20v271c0 11.046-8.954 20-20 20z" fill="#06995f" data-original="#015081" style="" class=""/><path xmlns="http://www.w3.org/2000/svg" d="m40 352.5v-276c0-11.046 8.954-20 20-20h345.649c57.998 44.805 95.351 115.041 95.351 194 0 36.399-7.939 70.945-22.178 102z" fill="#0ab59e" data-original="#0055c7" style="" class=""/><path xmlns="http://www.w3.org/2000/svg" d="m206 376.5h100v113.894c-16.142 3.347-32.866 5.106-50 5.106s-33.858-1.759-50-5.106z" fill="#0ab59e" data-original="#0055c7" style="" class=""/><path xmlns="http://www.w3.org/2000/svg" d="m170 408.5h-150c-11.046 0-20-8.954-20-20v-44h190v44c0 11.046-8.954 20-20 20z" fill="#006e66" data-original="#08a8f0" style="" class=""/><path xmlns="http://www.w3.org/2000/svg" d="m482.319 344.5c-9.724 23.385-22.966 44.938-39.067 64h-383.252c-11.046 0-20-8.954-20-20v-44z" fill="#06995f" data-original="#01cffa" style="" class=""/><path xmlns="http://www.w3.org/2000/svg" d="m460 304.5c0 5.523-4.477 10-10 10s-10-4.477-10-10 4.477-10 10-10 10 4.477 10 10zm-40-10c-5.523 0-10 4.477-10 10s4.477 10 10 10 10-4.477 10-10-4.477-10-10-10zm-30 0c-5.523 0-10 4.477-10 10s4.477 10 10 10 10-4.477 10-10-4.477-10-10-10z" fill="#06995f" data-original="#0494fb" style="" class=""/><path xmlns="http://www.w3.org/2000/svg" d="m190 104.5c0-5.523 4.477-10 10-10h60c5.523 0 10 4.477 10 10s-4.477 10-10 10h-60c-5.523 0-10-4.477-10-10zm50 80c-5.523 0-10 4.477-10 10s4.477 10 10 10h90c5.523 0 10-4.477 10-10s-4.477-10-10-10zm60-70h40c5.523 0 10-4.478 10-10 0-5.523-4.477-10-10-10h-40c-5.523 0-10 4.477-10 10 0 5.523 4.477 10 10 10zm-160 110h-70c-5.523 0-10 4.477-10 10 0 5.523 4.477 10 10 10h70c5.523 0 10-4.477 10-10 0-5.523-4.477-10-10-10zm320 0h-40c-5.523 0-10 4.477-10 10 0 5.523 4.477 10 10 10h40c5.523 0 10-4.477 10-10 0-5.523-4.477-10-10-10zm-390-20h130c5.523 0 10-4.477 10-10s-4.477-10-10-10h-130c-5.523 0-10 4.477-10 10s4.477 10 10 10zm310 20h-200c-5.523 0-10 4.477-10 10s4.477 10 10 10h200c5.523 0 10-4.477 10-10s-4.477-10-10-10z" fill="#006e66" data-original="#98e5fb" style="" class=""/><path xmlns="http://www.w3.org/2000/svg" d="m120 284.5c0 5.523-4.477 10-10 10h-40c-5.523 0-10-4.477-10-10 0-5.523 4.477-10 10-10h40c5.523 0 10 4.477 10 10zm-50-170h90c5.523 0 10-4.477 10-10 0-5.523-4.477-10-10-10h-90c-5.523 0-10 4.477-10 10 0 5.523 4.477 10 10 10zm170 30h-170c-5.523 0-10 4.477-10 10s4.477 10 10 10h170c5.523 0 10-4.477 10-10s-4.477-10-10-10zm-30 130h-40c-5.523 0-10 4.477-10 10 0 5.523 4.477 10 10 10h40c5.523 0 10-4.477 10-10 0-5.523-4.477-10-10-10z" fill="#fff5f5" data-original="#fff5f5" style="" class=""/></g></svg>
