<svg  fill="none"
    stroke="#30e87a"
    strokeWidth="5"
    strokeLinecap="round"
    strokeLinejoin="round" viewBox="0 0 152 152" xmlns="http://www.w3.org/2000/svg"><g id="Layer_2" data-name="Layer 2"><g id="Color"><path id="_15.Spotify" d="m76 0a76 76 0 1 0 76 76 76 76 0 0 0 -76-76zm22.9 99.43a3.74 3.74 0 0 1 -3.24 1.86 3.68 3.68 0 0 1 -1.89-.51c-9.86-5.78-21.25-6.69-29.07-6.45a71.83 71.83 0 0 0 -15.08 2 3.75 3.75 0 0 1 -2-7.23 77.88 77.88 0 0 1 16.63-2.25 72.56 72.56 0 0 1 16 1.16 54.21 54.21 0 0 1 17.27 6.3 3.75 3.75 0 0 1 1.38 5.12zm7-14.48a4.43 4.43 0 0 1 -6.07 1.59c-11.68-6.82-25.17-7.92-34.44-7.64a85.3 85.3 0 0 0 -17.89 2.36 4.44 4.44 0 0 1 -2.35-8.57 92.74 92.74 0 0 1 19.69-2.69 86.72 86.72 0 0 1 19 1.37 63.84 63.84 0 0 1 20.46 7.47 4.44 4.44 0 0 1 1.57 6.16zm9-15.88a5.43 5.43 0 0 1 -4.71 2.71 5.36 5.36 0 0 1 -2.74-.75c-27.77-16.22-63.78-6.58-64.14-6.48a5.45 5.45 0 0 1 -2.92-10.55 113.89 113.89 0 0 1 24.16-3.27 106.07 106.07 0 0 1 23.27 1.69 78.5 78.5 0 0 1 25.1 9.16 5.44 5.44 0 0 1 1.95 7.49z" data-name="15.Spotify"/></g></g></svg>